<svg
  xmlns="http://www.w3.org/2000/svg"
  width="32"
  height="32"
  viewBox="0 0 32 32"
  aria-labelledby="PAR Logo"
>
  <g>
    <path xmlns="http://www.w3.org/2000/svg" fill-rule="evenodd" clip-rule="evenodd" d="M30.3956 8.67767C30.3956 8.68582 30.3949 8.69303 30.3937 8.6993C30.3924 8.70557 30.3905 8.7109 30.388 8.71529C30.3855 8.71905 30.3824 8.72219 30.3786 8.72469C30.3749 8.72658 30.3708 8.72752 30.3664 8.72752H30.0031V9.82322C30.0031 9.82698 30.0022 9.83043 30.0003 9.83357C29.9984 9.8367 29.9952 9.83921 29.9909 9.84109C29.9865 9.84297 29.9805 9.84454 29.973 9.84579C29.9654 9.84705 29.9564 9.84767 29.9457 9.84767C29.935 9.84767 29.9259 9.84705 29.9184 9.84579C29.9108 9.84454 29.9049 9.84297 29.9005 9.84109C29.8961 9.83921 29.893 9.8367 29.8911 9.83357C29.8892 9.83043 29.8882 9.82698 29.8882 9.82322V8.72752H29.525C29.5199 8.72752 29.5156 8.72658 29.5118 8.72469C29.5087 8.72219 29.5059 8.71905 29.5033 8.71529C29.5008 8.7109 29.4989 8.70557 29.4977 8.6993C29.4965 8.69303 29.4958 8.68582 29.4958 8.67767C29.4958 8.66889 29.4965 8.66137 29.4977 8.6551C29.4989 8.6482 29.5008 8.64256 29.5033 8.63817C29.5059 8.63378 29.5087 8.63064 29.5118 8.62876C29.5156 8.62625 29.5199 8.625 29.525 8.625H30.3664C30.3708 8.625 30.3749 8.62625 30.3786 8.62876C30.3824 8.63064 30.3855 8.63378 30.388 8.63817C30.3905 8.64256 30.3924 8.6482 30.3937 8.6551C30.3949 8.66137 30.3956 8.66889 30.3956 8.67767ZM25.9183 18.3L25.8384 18.315L29.4631 23.1467L25.5504 23.1447L22.2332 18.5106V23.1447H18.7626V8.96387H23.9628C23.9628 8.96387 24.3692 8.96387 24.7393 9.00158C25.1815 9.0495 25.6196 9.12973 26.0501 9.24162C26.5197 9.36027 26.9514 9.53861 27.3588 9.81611C28.1148 10.3364 28.656 11.0395 28.9964 11.8868C29.3156 12.686 29.4191 13.5326 29.3406 14.3846C29.2999 14.7955 29.2075 15.1998 29.0657 15.5877C28.834 16.2284 28.4815 16.7914 27.9841 17.2595C27.3993 17.81 26.7044 18.146 25.9183 18.3ZM23.9668 16.072C24.2815 16.054 24.4714 15.9993 24.7108 15.9074C25.245 15.7026 25.6282 15.3384 25.7966 14.7882C25.8845 14.4954 25.9165 14.1886 25.8908 13.884C25.8738 13.6119 25.7955 13.3472 25.6616 13.1097C25.4614 12.7617 25.1575 12.5159 24.7931 12.3604C24.4229 12.2022 24.027 12.1458 23.6271 12.1458H22.2332V16.0922C22.2332 16.0922 23.3684 16.1135 23.9668 16.072ZM10.8024 13.7563C10.804 14.1695 10.7647 14.5818 10.6849 14.9873L14.8715 8.96436L18.3426 8.96561V23.146H14.8683V21.0956L10.0873 21.0943L8.66263 23.1447H5.01563L8.63564 17.9359C7.8038 18.4167 6.70054 18.7002 5.27933 18.7002H3.5922V23.1462H0.120209V8.96561H4.91542C6.43012 8.94637 7.56162 9.15719 8.3092 9.50213C9.84362 10.2112 10.8024 11.84 10.8024 13.7563ZM3.5922 15.5193H5.14538C6.60281 15.5193 7.33141 15.0212 7.33141 13.8145C7.33141 12.6648 6.62208 12.1473 5.01116 12.1473H3.5922V15.5193ZM12.0846 18.2211H14.8683V14.2394L12.0846 18.2211ZM31.8591 9.83357C31.8609 9.83043 31.8619 9.82698 31.8619 9.82322V8.68425C31.8619 8.67297 31.86 8.66356 31.8563 8.65604C31.8529 8.64851 31.8489 8.64256 31.844 8.63817C31.8391 8.63315 31.8332 8.6297 31.8271 8.62782C31.8206 8.62594 31.8148 8.625 31.8092 8.625H31.7403C31.7299 8.625 31.7197 8.62625 31.7105 8.62876C31.7015 8.63127 31.6929 8.63566 31.6849 8.64193C31.6775 8.6482 31.6699 8.65666 31.6625 8.66732C31.6554 8.67736 31.6489 8.6899 31.6425 8.70494L31.2237 9.66803H31.2191L30.8172 8.70118C30.812 8.68927 30.8065 8.67861 30.8003 8.6692C30.7939 8.6598 30.7862 8.65196 30.7766 8.64569C30.7679 8.63879 30.7576 8.63378 30.7456 8.63064C30.7337 8.62688 30.7199 8.625 30.7042 8.625H30.6421C30.6308 8.625 30.6193 8.62939 30.6073 8.63817C30.5954 8.64632 30.5894 8.66168 30.5894 8.68425V9.82322C30.5894 9.82698 30.59 9.83043 30.5913 9.83357C30.5932 9.8367 30.5963 9.83921 30.6007 9.84109C30.6051 9.84297 30.6108 9.84454 30.6177 9.84579C30.6252 9.84705 30.6343 9.84767 30.645 9.84767C30.6569 9.84767 30.6663 9.84705 30.6732 9.84579C30.6807 9.84454 30.6867 9.84297 30.6911 9.84109C30.6961 9.83921 30.6996 9.8367 30.7014 9.83357C30.7033 9.83043 30.7042 9.82698 30.7042 9.82322V8.72564H30.7052L31.1606 9.8298C31.1612 9.83231 31.1628 9.83482 31.1656 9.83733C31.168 9.83921 31.1711 9.84077 31.1748 9.84203C31.1791 9.84391 31.1846 9.84517 31.1908 9.84579C31.1972 9.84705 31.2046 9.84767 31.2136 9.84767C31.2215 9.84767 31.2283 9.84705 31.2342 9.84579C31.2403 9.84517 31.2459 9.84391 31.2502 9.84203C31.2545 9.84077 31.2579 9.83921 31.2603 9.83733C31.2631 9.83482 31.2649 9.83231 31.2662 9.8298L31.7453 8.72564H31.7471V9.82322C31.7471 9.82698 31.748 9.83043 31.7499 9.83357C31.7517 9.8367 31.7548 9.83921 31.7594 9.84109C31.7637 9.84297 31.7696 9.84454 31.7772 9.84579C31.7846 9.84705 31.7936 9.84767 31.8034 9.84767C31.8148 9.84767 31.824 9.84705 31.8308 9.84579C31.8385 9.84454 31.8443 9.84297 31.8486 9.84109C31.8538 9.83921 31.8572 9.8367 31.8591 9.83357Z" fill="#0A3450"/>
  </g>
</svg>
