<svg width="71" height="40" viewBox="0 0 71 40" fill="none" xmlns="http://www.w3.org/2000/svg">
<g clip-path="url(#clip0_par)">
<mask id="mask0_par" style="mask-type:luminance" maskUnits="userSpaceOnUse" x="0" y="3" width="71" height="33">
<path d="M70.9561 3H0V35.6599H70.9561V3Z" fill="white"/>
</mask>
<g mask="url(#mask0_par)">
<mask id="mask1_par" style="mask-type:luminance" maskUnits="userSpaceOnUse" x="0" y="3" width="71" height="33">
<path d="M70.7378 3H0V35.1881H70.7378V3Z" fill="white"/>
</mask>
<g mask="url(#mask1_par)">
<path d="M23.6927 17.0892C23.8695 16.192 23.9568 15.2796 23.9532 14.3653C23.9532 10.1248 21.8272 6.52059 18.4248 4.95142C16.7672 4.18812 14.2582 3.72162 10.8995 3.76418H0.266724V35.1438H7.96545V25.3054H11.7065C14.8578 25.3054 17.3042 24.678 19.1487 23.614L11.1217 35.1404H19.2085L22.3676 30.6031L32.9688 30.6059V35.1432H40.6726V3.76418L32.976 3.76141L23.6927 17.0892ZM11.4094 18.2664H7.96545V10.8047H11.1118C14.6838 10.8047 16.2567 11.9499 16.2567 14.4941C16.2567 17.1643 14.6411 18.2664 11.4094 18.2664ZM32.9688 24.2451H26.7964L32.9688 15.4343V24.2451Z" fill="#0A3450"/>
<path d="M57.2929 24.453L57.4702 24.4198C59.2133 24.0788 60.754 23.3354 62.0509 22.1172C63.1538 21.0814 63.9353 19.8356 64.449 18.4178C64.7637 17.5594 64.9684 16.6649 65.0587 15.7555C65.2327 13.8701 65.0032 11.9969 64.2955 10.2282C63.5407 8.35338 62.3407 6.79748 60.6642 5.64617C59.7609 5.03209 58.8038 4.63746 57.7624 4.37491C56.8078 4.12732 55.8365 3.94979 54.856 3.84375C54.0351 3.76028 53.134 3.76028 53.134 3.76028H41.6033V35.1403H49.2988V24.8858L56.6545 35.1403L65.3302 35.1448L57.2929 24.453ZM54.7928 19.1253C54.2618 19.3287 53.8407 19.4497 53.1429 19.4895C51.816 19.5813 49.2988 19.5343 49.2988 19.5343V10.8014H52.3896C53.2764 10.8014 54.1543 10.9263 54.9751 11.2762C55.7832 11.6205 56.4571 12.1644 56.9011 12.9343C57.1978 13.4599 57.3715 14.0457 57.4092 14.6478C57.4661 15.3219 57.3952 16.0006 57.2003 16.6486C56.8268 17.8662 55.9772 18.6721 54.7928 19.1253Z" fill="#0A3450"/>
<path d="M67.3982 3.12615C67.3982 3.14418 67.3968 3.16014 67.3941 3.17401C67.3913 3.18789 67.3871 3.19968 67.3814 3.2094C67.376 3.21772 67.369 3.22466 67.3606 3.23021C67.3523 3.23437 67.3432 3.23645 67.3335 3.23645H66.5279V5.66107C66.5279 5.66939 66.5259 5.67702 66.5217 5.68396C66.5175 5.69091 66.5106 5.69646 66.5008 5.70061C66.4911 5.70478 66.4779 5.70825 66.4612 5.71102C66.4444 5.7138 66.4244 5.71518 66.4006 5.71518C66.3769 5.71518 66.3568 5.7138 66.3401 5.71102C66.3234 5.70825 66.3102 5.70478 66.3005 5.70061C66.2907 5.69646 66.2838 5.69091 66.2796 5.68396C66.2754 5.67702 66.2733 5.66939 66.2733 5.66107V3.23645H65.4678C65.4566 3.23645 65.447 3.23437 65.4386 3.23021C65.4317 3.22466 65.4254 3.21772 65.4198 3.2094C65.4142 3.19968 65.41 3.18789 65.4073 3.17401C65.4046 3.16014 65.4031 3.14418 65.4031 3.12615C65.4031 3.10672 65.4046 3.09007 65.4073 3.0762C65.41 3.06093 65.4142 3.04845 65.4198 3.03873C65.4254 3.02902 65.4317 3.02209 65.4386 3.01792C65.447 3.01237 65.4566 3.0096 65.4678 3.0096H67.3335C67.3432 3.0096 67.3523 3.01237 67.3606 3.01792C67.369 3.02209 67.376 3.02902 67.3814 3.03873C67.3871 3.04845 67.3913 3.06093 67.3941 3.0762C67.3968 3.09007 67.3982 3.10672 67.3982 3.12615Z" fill="#0A3450"/>
<path d="M70.6495 5.66107C70.6495 5.66939 70.6474 5.67702 70.6434 5.68396C70.6393 5.69091 70.6317 5.69646 70.6202 5.70061C70.6106 5.70478 70.5977 5.70825 70.5806 5.71102C70.5656 5.7138 70.5451 5.71518 70.5199 5.71518C70.498 5.71518 70.4782 5.7138 70.4618 5.71102C70.4448 5.70825 70.4319 5.70478 70.4223 5.70061C70.4121 5.69646 70.4053 5.69091 70.4012 5.68396C70.3971 5.67702 70.395 5.66939 70.395 5.66107V3.23229H70.3909L69.3286 5.67564C69.3259 5.68119 69.3218 5.68674 69.3156 5.69229C69.3102 5.69646 69.3027 5.69992 69.2931 5.7027C69.2836 5.70686 69.2713 5.70964 69.2577 5.71102C69.2447 5.7138 69.2297 5.71518 69.212 5.71518C69.1922 5.71518 69.1758 5.7138 69.1615 5.71102C69.1478 5.70964 69.1355 5.70686 69.126 5.7027C69.1178 5.69992 69.1109 5.69646 69.1055 5.69229C69.0994 5.68674 69.096 5.68119 69.0946 5.67564L68.0847 3.23229H68.0826V5.66107C68.0826 5.66939 68.0806 5.67702 68.0764 5.68396C68.0722 5.69091 68.0646 5.69646 68.0534 5.70061C68.0437 5.70478 68.0305 5.70825 68.0138 5.71102C67.9985 5.7138 67.9776 5.71518 67.9511 5.71518C67.9275 5.71518 67.9073 5.7138 67.8906 5.71102C67.8753 5.70825 67.8628 5.70478 67.8531 5.70061C67.8433 5.69646 67.8364 5.69091 67.8322 5.68396C67.8294 5.67702 67.828 5.66939 67.828 5.66107V3.14071C67.828 3.09077 67.8413 3.05677 67.8677 3.03873C67.8942 3.01931 67.9199 3.0096 67.9449 3.0096H68.0826C68.1174 3.0096 68.148 3.01376 68.1744 3.02209C68.2009 3.02902 68.2239 3.04012 68.2431 3.05538C68.2643 3.06926 68.2813 3.0866 68.2957 3.10742C68.3093 3.12823 68.3216 3.15181 68.3332 3.17818L69.2243 5.31767H69.2345L70.163 3.1865C70.1773 3.1532 70.1917 3.12545 70.2074 3.10325C70.2238 3.07967 70.2408 3.06093 70.2572 3.04706C70.2749 3.03318 70.294 3.02347 70.3138 3.01792C70.3343 3.01237 70.3568 3.0096 70.38 3.0096H70.5328C70.5451 3.0096 70.558 3.01168 70.5724 3.01584C70.586 3.02 70.599 3.02763 70.6099 3.03873C70.6208 3.04845 70.6297 3.06163 70.6372 3.07828C70.6454 3.09493 70.6495 3.11574 70.6495 3.14071V5.66107Z" fill="#0A3450"/>
</g>
</g>
</g>
<defs>
<clipPath id="clip0_par">
<rect width="71" height="40" fill="white"/>
</clipPath>
</defs>
</svg>
